<svg width="1502" height="1146" viewBox="0 0 1502 1146" fill="none" xmlns="http://www.w3.org/2000/svg">
<rect width="1502" height="1146" fill="#E5E5E5"/>
<path d="M1070 592.5C1070 898.19 830.472 1146 535 1146C239.528 1146 0 898.19 0 592.5C0 286.81 239.528 39 535 39C830.472 39 1070 286.81 1070 592.5Z" fill="#90E3EE"/>
<ellipse cx="322.5" cy="654.5" rx="177.5" ry="150.5" fill="black"/>
<ellipse cx="331.5" cy="675.5" rx="177.5" ry="150.5" fill="#90E3EE"/>
<ellipse cx="1115.5" cy="366" rx="386.5" ry="366" fill="#90E3EE"/>
<ellipse cx="1028.5" cy="113" rx="105.5" ry="17" fill="#C4C4C4"/>
<ellipse cx="1028.5" cy="414.5" rx="105.5" ry="17.5" fill="#514E4E"/>
<rect x="923" y="113" width="211" height="302" fill="#757AFC"/>
<rect x="1055" y="113" width="59" height="302" fill="#1E1010"/>
<rect x="1075" y="336" width="22" height="62" fill="#C4C4C4"/>
<rect x="976" y="417" width="15" height="201" fill="#C4C4C4"/>
<rect x="1055" y="418" width="13" height="227" fill="#C4C4C4"/>
<rect x="1063" y="417" width="13" height="227" fill="#6B6969"/>
<rect x="983" y="417" width="13" height="201" fill="#6B6969"/>
<rect x="1075" y="136" width="22" height="62" fill="#C4C4C4"/>
<rect x="1075" y="239" width="22" height="62" fill="#C4C4C4"/>
<rect x="1078" y="340" width="16" height="53" fill="#170808"/>
<rect x="1078" y="340" width="16" height="53" fill="#170808"/>
<rect x="1078" y="340" width="16" height="53" fill="#170808"/>
<rect x="1078" y="340" width="16" height="53" fill="#170808"/>
<rect x="1078" y="243" width="16" height="53" fill="#170808"/>
<rect x="1078" y="243" width="16" height="53" fill="#170808"/>
<rect x="1078" y="243" width="16" height="53" fill="#170808"/>
<rect x="1078" y="243" width="16" height="53" fill="#170808"/>
<rect x="1078" y="140" width="16" height="53" fill="#170808"/>
<rect x="1078" y="140" width="16" height="53" fill="#170808"/>
<rect x="1078" y="140" width="16" height="53" fill="#170808"/>
<rect x="1078" y="140" width="16" height="53" fill="#170808"/>
<path d="M1049.26 397.423L1023.74 397.125L1023.77 394.605L1038.6 394.778L1023.9 380.529L1023.93 377.758L1035.04 388.328L1049.49 377.517L1049.46 380.36L1036.53 389.966L1041.44 394.812L1049.29 394.903L1049.26 397.423ZM1047.5 357.095L1049.73 357.121L1049.53 374.292L1023.97 373.993L1024.17 357.146L1026.4 357.172L1026.24 371.499L1035.45 371.607L1035.6 359.116L1037.72 359.141L1037.57 371.632L1047.33 371.746L1047.5 357.095ZM1028.9 349.592L1049.82 349.836L1049.79 352.356L1024.23 352.057L1024.25 349.969L1045.76 333.444L1024.49 333.195L1024.52 330.675L1050.04 330.974L1050.01 333.313L1028.9 349.592ZM1048.08 307.352L1050.31 307.379L1050.11 324.549L1024.56 324.25L1024.75 307.404L1026.98 307.43L1026.82 321.757L1036.03 321.864L1036.18 309.373L1038.3 309.398L1038.16 321.889L1047.91 322.003L1048.08 307.352ZM1027.26 284.198L1027.15 293.305L1050.48 293.578L1050.45 296.098L1027.12 295.825L1027.01 304.932L1024.78 304.906L1025.02 284.172L1027.26 284.198Z" fill="black"/>
<path d="M969.654 223.969L969.421 234.478L968.377 234.455C968.126 233.849 967.912 233.244 967.733 232.64C967.531 232.011 967.365 231.383 967.235 230.756L949.563 230.364L947.443 230.173C947.692 230.85 947.868 231.551 947.972 232.273C948.052 232.995 948.072 233.74 948.031 234.507L947.163 234.668C946.827 233.556 946.409 232.406 945.907 231.219C945.381 230.031 944.722 228.924 943.928 227.898L943.948 226.998L967.307 227.517C967.464 226.921 967.657 226.325 967.886 225.73C968.092 225.134 968.333 224.539 968.61 223.945L969.654 223.969ZM957.172 218.535C952.853 218.439 949.617 217.647 947.466 216.159C945.315 214.67 944.269 212.583 944.328 209.895C944.393 206.992 945.52 204.893 947.709 203.597C949.874 202.301 953.152 201.701 957.543 201.799C961.862 201.895 965.097 202.699 967.248 204.211C969.4 205.699 970.444 207.859 970.381 210.69C970.349 212.154 970.033 213.395 969.434 214.414C968.811 215.432 967.941 216.253 966.823 216.877C965.681 217.499 964.302 217.949 962.688 218.225C961.074 218.477 959.235 218.58 957.172 218.535ZM957.248 215.079C958.976 215.118 960.549 215.069 961.969 214.932C963.388 214.796 964.618 214.559 965.657 214.222C966.674 213.861 967.464 213.398 968.029 212.834C968.594 212.247 968.886 211.533 968.905 210.693C968.947 208.798 968.041 207.445 966.186 206.636C964.332 205.803 961.426 205.342 957.467 205.254C955.739 205.216 954.166 205.253 952.747 205.365C951.328 205.478 950.111 205.715 949.094 206.076C948.078 206.438 947.287 206.936 946.72 207.572C946.155 208.183 945.861 208.969 945.84 209.929C945.8 211.728 946.707 213.021 948.562 213.806C950.394 214.567 953.289 214.992 957.248 215.079ZM957.598 199.344C953.279 199.248 950.044 198.456 947.892 196.968C945.741 195.48 944.695 193.392 944.755 190.705C944.819 187.801 945.946 185.702 948.135 184.406C950.301 183.11 953.579 182.511 957.97 182.608C962.289 182.704 965.524 183.508 967.674 185.02C969.826 186.508 970.87 188.668 970.807 191.499C970.775 192.963 970.459 194.204 969.86 195.223C969.238 196.242 968.367 197.063 967.249 197.686C966.107 198.309 964.729 198.758 963.114 199.034C961.5 199.287 959.661 199.39 957.598 199.344ZM957.675 195.889C959.402 195.927 960.976 195.878 962.395 195.742C963.814 195.605 965.044 195.368 966.084 195.031C967.1 194.67 967.891 194.207 968.455 193.644C969.02 193.056 969.312 192.342 969.331 191.503C969.373 189.607 968.467 188.255 966.612 187.445C964.758 186.612 961.852 186.151 957.893 186.063C956.165 186.025 954.592 186.062 953.173 186.175C951.754 186.287 950.537 186.524 949.521 186.886C948.504 187.247 947.713 187.746 947.147 188.381C946.581 188.993 946.288 189.779 946.266 190.738C946.226 192.538 947.134 193.83 948.989 194.616C950.82 195.377 953.716 195.801 957.675 195.889ZM970.355 168.106L977.221 166.999L978.121 167.019C978.431 168.178 978.407 169.282 978.047 170.33L954.941 169.817L954.605 171.97L953.669 171.949C953.398 171.175 953.164 170.389 952.965 169.593C952.768 168.772 952.605 167.976 952.478 167.205L952.498 166.305C954.298 166.345 956.085 166.421 957.859 166.533C959.633 166.644 961.395 166.719 963.147 166.758C964.083 166.779 964.924 166.749 965.67 166.67C966.416 166.567 967.044 166.389 967.554 166.136C968.064 165.859 968.469 165.484 968.767 165.01C969.042 164.536 969.187 163.927 969.204 163.184C969.228 162.104 968.864 161.184 968.113 160.423C967.338 159.661 966.331 159.063 965.092 158.627L955.194 158.407L954.854 160.776L953.918 160.756C953.647 160.005 953.412 159.22 953.214 158.399C953.016 157.579 952.854 156.783 952.727 156.012L952.747 155.112L969.123 155.476L969.464 153.107L970.219 153.124C970.516 153.827 970.776 154.54 971 155.266C971.224 155.991 971.387 156.739 971.49 157.509L971.47 158.409L967.182 158.566L967.179 158.71C967.68 158.841 968.191 159.068 968.712 159.392C969.209 159.691 969.669 160.085 970.09 160.575C970.488 161.04 970.812 161.587 971.062 162.217C971.312 162.822 971.43 163.485 971.414 164.205C971.397 164.973 971.309 165.667 971.151 166.288C970.994 166.884 970.73 167.419 970.36 167.891L970.355 168.106ZM969.497 145.142C969.664 144.089 969.975 143.064 970.429 142.066L971.473 142.089L971.27 151.231L970.226 151.208C970.043 150.795 969.884 150.372 969.75 149.937C969.616 149.502 969.506 149.055 969.42 148.597L948.077 148.123C947.945 148.648 947.803 149.125 947.649 149.554C947.472 149.982 947.295 150.362 947.12 150.694L946.076 150.671L946.451 133.791C947.386 133.836 948.345 133.905 949.327 133.999C950.31 134.069 951.292 134.175 952.273 134.317L952.252 135.252L948.26 136.64L948.082 144.666L958.339 144.894L958.478 138.668L955.847 137.133L955.865 136.305C956.418 136.269 957.007 136.246 957.631 136.236C958.232 136.225 958.844 136.227 959.468 136.241C960.116 136.255 960.751 136.281 961.374 136.319C961.998 136.357 962.585 136.406 963.136 136.466L963.117 137.294L960.313 138.708L960.175 144.935L969.497 145.142ZM999.233 235.14L999.213 236.04C998.512 236.288 997.69 236.546 996.747 236.813C995.806 237.057 994.913 237.265 994.069 237.438C993.368 236.582 992.826 235.562 992.444 234.377C992.039 233.192 991.851 231.915 991.881 230.548C991.908 229.348 992.099 228.32 992.454 227.464C992.809 226.607 993.281 225.91 993.869 225.371C994.457 224.808 995.139 224.403 995.912 224.156C996.662 223.908 997.445 223.794 998.261 223.812C999.604 223.842 1000.98 224.184 1002.38 224.839C1003.78 225.495 1005.14 226.305 1006.47 227.271C1007.77 228.212 1008.99 229.235 1010.14 230.341C1011.29 231.447 1012.3 232.466 1013.17 233.397L1014.54 234.94L1014.69 234.943L1014.51 232.923L1014.65 226.732L1010.66 224.879L1010.68 223.98C1011.21 223.943 1011.79 223.908 1012.41 223.874C1013.04 223.84 1013.67 223.818 1014.32 223.808C1014.95 223.774 1015.56 223.752 1016.16 223.741C1016.73 223.73 1017.24 223.729 1017.67 223.739L1017.34 238.603L1016.19 238.578C1015.65 238.037 1014.99 237.387 1014.22 236.625C1013.44 235.84 1012.58 235.029 1011.64 234.191C1010.7 233.354 1009.7 232.528 1008.64 231.712C1007.57 230.872 1006.5 230.128 1005.41 229.48C1004.29 228.831 1003.19 228.302 1002.09 227.894C1001 227.461 999.949 227.234 998.941 227.212C998.245 227.196 997.583 227.278 996.955 227.456C996.328 227.61 995.782 227.862 995.318 228.211C994.83 228.561 994.448 228.996 994.173 229.518C993.898 230.016 993.753 230.601 993.738 231.273C993.727 231.777 993.753 232.222 993.816 232.607C993.88 232.993 993.978 233.415 994.112 233.874L999.233 235.14ZM990.9 205.024L990.92 204.125C991.279 204.157 991.686 204.202 992.141 204.26C992.573 204.293 993.015 204.351 993.47 204.433C993.9 204.515 994.318 204.596 994.725 204.677C995.131 204.758 995.465 204.85 995.727 204.952L995.53 213.805L1002.46 214.823L1002.51 212.484C1002.54 211.284 1002.73 210.196 1003.09 209.22C1003.42 208.219 1003.92 207.378 1004.58 206.697C1005.22 205.991 1006 205.456 1006.92 205.092C1007.84 204.705 1008.89 204.524 1010.07 204.55C1011.46 204.581 1012.68 204.848 1013.72 205.351C1014.77 205.855 1015.64 206.51 1016.34 207.318C1017.02 208.125 1017.53 209.037 1017.87 210.052C1018.2 211.068 1018.36 212.116 1018.34 213.196C1018.33 213.676 1018.27 214.19 1018.16 214.74C1018.07 215.29 1017.94 215.84 1017.76 216.388C1017.58 216.912 1017.38 217.411 1017.15 217.887C1016.9 218.361 1016.64 218.763 1016.37 219.093L1013.15 217.978L1013.17 217.258C1013.34 217.118 1013.56 216.943 1013.83 216.732C1014.1 216.522 1014.38 216.313 1014.67 216.103C1014.97 215.869 1015.26 215.648 1015.55 215.438C1015.84 215.205 1016.1 214.994 1016.32 214.807C1016.37 214.568 1016.44 214.354 1016.52 214.163C1016.59 213.949 1016.64 213.626 1016.64 213.194C1016.66 212.402 1016.52 211.679 1016.22 211.024C1015.93 210.345 1015.52 209.76 1015 209.269C1014.46 208.777 1013.83 208.391 1013.12 208.111C1012.41 207.831 1011.63 207.681 1010.79 207.663C1009.83 207.641 1009 207.803 1008.29 208.147C1007.57 208.491 1006.98 208.97 1006.53 209.585C1006.06 210.198 1005.71 210.923 1005.48 211.758C1005.24 212.569 1005.13 213.43 1005.13 214.343L1005.11 216.899L992.655 215.182L992.845 206.616L990.9 205.024ZM1018.97 184.642L1002.19 191.29C1001.93 191.981 1001.63 192.61 1001.28 193.179L1000.35 193.158L1000.51 185.636L1001.41 185.656C1001.57 185.971 1001.73 186.299 1001.89 186.639C1002.03 186.954 1002.16 187.317 1002.27 187.727L1013.19 183.793L1015.44 183.123L1015.44 183.051L1013.19 182.46L1002.47 178.37C1002.37 178.751 1002.24 179.109 1002.09 179.441C1001.94 179.75 1001.77 180.046 1001.57 180.33L1000.63 180.309L1000.77 174.191L1001.7 174.211C1001.87 174.455 1002.01 174.759 1002.15 175.122C1002.29 175.461 1002.41 175.848 1002.52 176.282L1018.58 183.012L1018.97 184.642Z" fill="black"/>
<ellipse cx="1256.5" cy="240.5" rx="150.5" ry="130.5" fill="#FF9B27"/>
<rect x="1201" y="362" width="11" height="205" fill="#C4C4C4"/>
<rect x="1277" y="369" width="11" height="205" fill="#C4C4C4"/>
<rect x="1288" y="369" width="11" height="205" fill="#929090"/>
<path d="M252 830.42L262.5 807L346.5 868L332.879 884.894L252 830.42Z" fill="#929090"/>
<rect x="1248" y="369" width="11" height="205" fill="#929090"/>
<rect x="1212" y="362" width="11" height="205" fill="#929090"/>
<rect x="1237" y="369" width="11" height="205" fill="#C4C4C4"/>
<ellipse cx="1236" cy="254.5" rx="142" ry="135.5" fill="#FFD5A4"/>
<path d="M282 776.5L299.979 758.297L384.58 815.277L364.5 828.5L282 776.5Z" fill="#929090"/>
<path d="M1203.78 290H1197.97V251.469L1186.31 255.75V250.5L1202.88 244.281H1203.78V290ZM1249.25 270.594C1249.25 277.365 1248.09 282.396 1245.78 285.688C1243.47 288.979 1239.85 290.625 1234.94 290.625C1230.08 290.625 1226.49 289.021 1224.16 285.812C1221.82 282.583 1220.61 277.771 1220.53 271.375V263.656C1220.53 256.969 1221.69 252 1224 248.75C1226.31 245.5 1229.94 243.875 1234.88 243.875C1239.77 243.875 1243.38 245.448 1245.69 248.594C1248 251.719 1249.19 256.552 1249.25 263.094V270.594ZM1243.47 262.688C1243.47 257.792 1242.78 254.229 1241.41 252C1240.03 249.75 1237.85 248.625 1234.88 248.625C1231.92 248.625 1229.76 249.74 1228.41 251.969C1227.05 254.198 1226.35 257.625 1226.31 262.25V271.5C1226.31 276.417 1227.02 280.052 1228.44 282.406C1229.88 284.74 1232.04 285.906 1234.94 285.906C1237.79 285.906 1239.91 284.802 1241.28 282.594C1242.68 280.385 1243.41 276.906 1243.47 272.156V262.688ZM1265.06 264.438H1269.41C1272.14 264.396 1274.28 263.677 1275.84 262.281C1277.41 260.885 1278.19 259 1278.19 256.625C1278.19 251.292 1275.53 248.625 1270.22 248.625C1267.72 248.625 1265.72 249.344 1264.22 250.781C1262.74 252.198 1262 254.083 1262 256.438H1256.22C1256.22 252.833 1257.53 249.844 1260.16 247.469C1262.8 245.073 1266.16 243.875 1270.22 243.875C1274.51 243.875 1277.88 245.01 1280.31 247.281C1282.75 249.552 1283.97 252.708 1283.97 256.75C1283.97 258.729 1283.32 260.646 1282.03 262.5C1280.76 264.354 1279.02 265.74 1276.81 266.656C1279.31 267.448 1281.24 268.76 1282.59 270.594C1283.97 272.427 1284.66 274.667 1284.66 277.312C1284.66 281.396 1283.32 284.635 1280.66 287.031C1277.99 289.427 1274.52 290.625 1270.25 290.625C1265.98 290.625 1262.5 289.469 1259.81 287.156C1257.15 284.844 1255.81 281.792 1255.81 278H1261.62C1261.62 280.396 1262.41 282.312 1263.97 283.75C1265.53 285.188 1267.62 285.906 1270.25 285.906C1273.04 285.906 1275.18 285.177 1276.66 283.719C1278.14 282.26 1278.88 280.167 1278.88 277.438C1278.88 274.792 1278.06 272.76 1276.44 271.344C1274.81 269.927 1272.47 269.198 1269.41 269.156H1265.06V264.438Z" fill="black"/>
<rect x="881" y="454" width="361" height="74" fill="#636363"/>
<rect x="896" y="455" width="347" height="73" fill="#242121"/>
<rect x="924" y="490" width="34" height="44" fill="#C4C4C4"/>
<rect x="997" y="490" width="34" height="44" fill="#C4C4C4"/>
<rect x="1070" y="490" width="35" height="44" fill="#C4C4C4"/>
<rect x="1144" y="490" width="35" height="44" fill="#C4C4C4"/>
<rect x="1144" y="500" width="35" height="44" fill="#6B6B6B"/>
<rect x="1070" y="500" width="35" height="44" fill="#6B6B6B"/>
<rect x="996" y="500" width="35" height="44" fill="#6B6B6B"/>
<rect x="923" y="500" width="35" height="44" fill="#6B6B6B"/>
<rect x="935" y="541" width="8" height="33" fill="#C4C4C4"/>
<rect x="1009" y="541" width="8" height="33" fill="#C4C4C4"/>
<rect x="1084" y="541" width="8" height="33" fill="#C4C4C4"/>
<rect x="1159" y="541" width="8" height="33" fill="#C4C4C4"/>
<rect x="368.937" y="192.014" width="462" height="430" fill="black"/>
<rect x="438.937" y="255.014" width="323" height="302" fill="#6D6D6D"/>
<path d="M817.267 205.892L814.617 255.329L767.927 201.822L817.267 205.892Z" fill="#5F5F5F"/>
<path d="M686.425 244.634L683.089 195.239L735.896 242.719L686.425 244.634Z" fill="#5F5F5F"/>
<path d="M770.425 319.634L767.089 270.239L819.896 317.719L770.425 319.634Z" fill="#5F5F5F"/>
<path d="M772.296 495.625L821.772 493.844L772.652 545.131L772.296 495.625Z" fill="#5F5F5F"/>
<path d="M493.541 567.237L490.282 616.637L444.255 562.558L493.541 567.237Z" fill="#5F5F5F"/>
<path d="M430.541 496.237L427.282 545.637L381.255 491.558L430.541 496.237Z" fill="#5F5F5F"/>
<path d="M493.549 245.108L444.232 249.445L490.633 195.687L493.549 245.108Z" fill="#5F5F5F"/>
<path d="M429.549 313.108L380.232 317.445L426.633 263.687L429.549 313.108Z" fill="#5F5F5F"/>
<path d="M700.296 565.625L749.772 563.844L700.652 615.131L700.296 565.625Z" fill="#5F5F5F"/>
<path d="M817.386 608.584L767.879 608.454L818.94 559.101L817.386 608.584Z" fill="#5F5F5F"/>
<path d="M386.972 206.962L436.476 206.325L386.185 256.463L386.972 206.962Z" fill="#5F5F5F"/>
<path d="M378.328 609.074L378.736 559.568L427.802 610.905L378.328 609.074Z" fill="#5F5F5F"/>
<rect x="724.399" y="183.307" width="164.104" height="21.4797" transform="rotate(46.4328 724.399 183.307)" fill="#FFFEFE"/>
<rect x="359.831" y="297.788" width="164.104" height="21.4797" transform="rotate(-46.3164 359.831 297.788)" fill="#FFFEFE"/>
<rect x="709.807" y="611.194" width="154.892" height="21.2113" transform="rotate(-41.77 709.807 611.194)" fill="#FFFEFE"/>
<rect x="466.17" y="629.143" width="154.892" height="21.2113" transform="rotate(-133.31 466.17 629.143)" fill="#FFFEFE"/>
<rect x="843.303" y="530.902" width="150.953" height="22" transform="rotate(137.965 843.303 530.902)" fill="#756A6A"/>
<rect x="843.303" y="530.902" width="150.953" height="22" transform="rotate(137.965 843.303 530.902)" fill="#756A6A"/>
<rect x="456.793" y="631.03" width="150.953" height="22" transform="rotate(-131.922 456.793 631.03)" fill="#756A6A"/>
<rect x="728.399" y="179.307" width="164.104" height="21.4797" transform="rotate(46.4328 728.399 179.307)" fill="#756A6A"/>
<rect x="357.937" y="295.043" width="164.104" height="21.4797" transform="rotate(-47.0055 357.937 295.043)" fill="#756A6A"/>
<rect x="728.399" y="179.307" width="164.104" height="21.4797" transform="rotate(46.4328 728.399 179.307)" fill="#756A6A"/>
<rect x="464.937" y="277.014" width="252" height="248" fill="white"/>
<ellipse cx="590.937" cy="400.514" rx="33" ry="29.5" fill="#C4C4C4"/>
<ellipse cx="392.937" cy="592.514" rx="10" ry="8.5" fill="black"/>
<ellipse cx="401.937" cy="221.514" rx="10" ry="8.5" fill="black"/>
<ellipse cx="800.937" cy="592.514" rx="10" ry="8.5" fill="black"/>
<ellipse cx="800.937" cy="216.514" rx="10" ry="8.5" fill="black"/>
<rect x="133" y="766.756" width="107" height="130" transform="rotate(-52.3832 133 766.756)" fill="#9D9D9D"/>
<rect x="145" y="746.144" width="107" height="130" transform="rotate(-51.849 145 746.144)" fill="#8A5353"/>
<rect width="366.901" height="573.649" transform="matrix(0.705478 0.708732 0.708732 -0.705478 372 884.696)" fill="#67B41A"/>
<rect x="608.706" y="685.828" width="140.033" height="122.819" transform="rotate(-42.0704 608.706 685.828)" fill="#C4C4C4"/>
<rect x="598" y="686.828" width="140.033" height="122.819" transform="rotate(-42.0704 598 686.828)" fill="black"/>
<rect x="775.36" y="699.145" width="7.00052" height="12.3716" transform="rotate(-44.2962 775.36 699.145)" fill="#C1AE00"/>
<rect x="784" y="689.889" width="7.00052" height="12.3716" transform="rotate(-44.2962 784 689.889)" fill="#C1AE00"/>
<rect x="766" y="707.889" width="7.00052" height="12.3716" transform="rotate(-44.2962 766 707.889)" fill="#C1AE00"/>
<rect x="756" y="716.889" width="7.00052" height="12.3716" transform="rotate(-44.2962 756 716.889)" fill="#C1AE00"/>
<rect x="747" y="725.889" width="7.00052" height="12.3716" transform="rotate(-44.2962 747 725.889)" fill="#C1AE00"/>
<rect x="738" y="733.889" width="7.00052" height="12.3716" transform="rotate(-44.2962 738 733.889)" fill="#C1AE00"/>
<rect x="729" y="741.889" width="7.00052" height="12.3716" transform="rotate(-44.2962 729 741.889)" fill="#C1AE00"/>
<rect x="720" y="750.889" width="7.00052" height="12.3716" transform="rotate(-44.2962 720 750.889)" fill="#C1AE00"/>
<path d="M710 759.889L715.011 755L723.651 763.855L718.64 768.744L710 759.889Z" fill="#C1AE00"/>
<path d="M701 768.889L706.011 764L714.651 772.855L709.64 777.744L701 768.889Z" fill="#C1AE00"/>
<path d="M691 775.889L696.011 771L704.651 779.855L699.64 784.744L691 775.889Z" fill="#C1AE00"/>
<rect x="715.919" y="598.674" width="7.00052" height="12.3716" transform="rotate(-134.645 715.919 598.674)" fill="#C1AE00"/>
<rect x="724.72" y="607.981" width="7.00052" height="12.3716" transform="rotate(-134.645 724.72 607.981)" fill="#C1AE00"/>
<rect x="733.781" y="617.926" width="7.00052" height="12.3716" transform="rotate(-134.645 733.781 617.926)" fill="#C1AE00"/>
<rect x="742.835" y="626.871" width="7.00052" height="12.3716" transform="rotate(-134.645 742.835 626.871)" fill="#C1AE00"/>
<rect x="750.89" y="635.822" width="7.00052" height="12.3716" transform="rotate(-134.645 750.89 635.822)" fill="#C1AE00"/>
<rect x="758.945" y="644.773" width="7.00052" height="12.3716" transform="rotate(-134.645 758.945 644.773)" fill="#C1AE00"/>
<rect x="767.999" y="653.718" width="7.00052" height="12.3716" transform="rotate(-134.645 767.999 653.718)" fill="#C1AE00"/>
<path d="M777.06 663.663L772.141 658.683L780.943 649.989L785.862 654.969L777.06 663.663Z" fill="#C1AE00"/>
<path d="M786.115 672.608L781.196 667.627L789.998 658.934L794.917 663.914L786.115 672.608Z" fill="#C1AE00"/>
<path d="M793.176 682.565L788.256 677.585L797.058 668.891L801.978 673.872L793.176 682.565Z" fill="#C1AE00"/>
<rect x="610.676" y="675.081" width="7.00052" height="12.3716" transform="rotate(135.337 610.676 675.081)" fill="#C1AE00"/>
<rect x="622.98" y="664.278" width="7.00052" height="12.3716" transform="rotate(135.337 622.98 664.278)" fill="#C1AE00"/>
<rect x="632.922" y="655.214" width="7.00052" height="12.3716" transform="rotate(135.337 632.922 655.214)" fill="#C1AE00"/>
<rect x="641.864" y="648.157" width="7.00052" height="12.3716" transform="rotate(135.337 641.864 648.157)" fill="#C1AE00"/>
<rect x="650.813" y="641.099" width="7.00052" height="12.3716" transform="rotate(135.337 650.813 641.099)" fill="#C1AE00"/>
<rect x="659.761" y="633.042" width="7.00052" height="12.3716" transform="rotate(135.337 659.761 633.042)" fill="#C1AE00"/>
<rect x="668.703" y="623.984" width="7.00052" height="12.3716" transform="rotate(135.337 668.703 623.984)" fill="#C1AE00"/>
<path d="M678.646 614.921L673.667 619.841L664.97 611.042L669.949 606.121L678.646 614.921Z" fill="#C1AE00"/>
<path d="M687.588 605.863L682.609 610.784L673.912 601.985L678.892 597.064L687.588 605.863Z" fill="#C1AE00"/>
<path d="M697.543 598.799L692.564 603.72L683.867 594.921L688.847 590L697.543 598.799Z" fill="#C1AE00"/>
<rect width="6.4582" height="11.4319" transform="matrix(0.693119 0.720823 -0.738158 0.674628 668.033 768.59)" fill="#C1AE00"/>
<rect width="6.4582" height="11.4319" transform="matrix(0.693119 0.720823 -0.738158 0.674628 676.524 776.632)" fill="#C1AE00"/>
<rect width="6.4582" height="11.4319" transform="matrix(0.693119 0.720823 -0.738158 0.674628 660.035 759.901)" fill="#C1AE00"/>
<rect width="6.4582" height="11.4319" transform="matrix(0.693119 0.720823 -0.738158 0.674628 651.809 750.624)" fill="#C1AE00"/>
<rect width="6.4582" height="11.4319" transform="matrix(0.693119 0.720823 -0.738158 0.674628 643.564 742.258)" fill="#C1AE00"/>
<rect width="6.4582" height="11.4319" transform="matrix(0.693119 0.720823 -0.738158 0.674628 636.254 733.911)" fill="#C1AE00"/>
<rect width="6.4582" height="11.4319" transform="matrix(0.693119 0.720823 -0.738158 0.674628 628.945 725.563)" fill="#C1AE00"/>
<rect width="6.4582" height="11.4319" transform="matrix(0.693119 0.720823 -0.738158 0.674628 620.7 717.197)" fill="#C1AE00"/>
<path d="M612.474 707.92L616.95 712.576L608.512 720.288L604.036 715.633L612.474 707.92Z" fill="#C1AE00"/>
<path d="M604.23 699.555L608.706 704.21L600.267 711.922L595.791 707.267L604.23 699.555Z" fill="#C1AE00"/>
<path d="M597.873 690.314L602.35 694.969L593.911 702.682L589.435 698.026L597.873 690.314Z" fill="#C1AE00"/>
<ellipse cx="788.276" cy="561.565" rx="55.5" ry="25" transform="rotate(41.968 788.276 561.565)" fill="#F1DCDC"/>
<ellipse cx="782.983" cy="572.702" rx="55.5" ry="25" transform="rotate(41.968 782.983 572.702)" fill="#C4C4C4"/>
<rect x="847" y="624" width="1" height="15" fill="#C4C4C4"/>
<rect x="845" y="614.859" width="26" height="25" transform="rotate(-43.3856 845 614.859)" fill="#847C7C"/>
<rect x="845" y="614.859" width="26" height="25" transform="rotate(-43.3856 845 614.859)" fill="#847C7C"/>
<rect x="845" y="614.859" width="26" height="25" transform="rotate(-43.3856 845 614.859)" fill="#847C7C"/>
<rect x="870" y="637.859" width="26" height="25" transform="rotate(-43.3856 870 637.859)" fill="#847C7C"/>
<rect x="870" y="637.859" width="26" height="25" transform="rotate(-43.3856 870 637.859)" fill="#847C7C"/>
<rect x="870" y="637.859" width="26" height="25" transform="rotate(-43.3856 870 637.859)" fill="#847C7C"/>
<rect x="891" y="659.859" width="26" height="25" transform="rotate(-43.3856 891 659.859)" fill="#847C7C"/>
<rect x="891" y="659.859" width="26" height="25" transform="rotate(-43.3856 891 659.859)" fill="#847C7C"/>
<rect x="891" y="659.859" width="26" height="25" transform="rotate(-43.3856 891 659.859)" fill="#847C7C"/>
<rect x="914" y="680.859" width="26" height="25" transform="rotate(-43.3856 914 680.859)" fill="#847C7C"/>
<rect x="914" y="680.859" width="26" height="25" transform="rotate(-43.3856 914 680.859)" fill="#847C7C"/>
<rect x="914" y="680.859" width="26" height="25" transform="rotate(-43.3856 914 680.859)" fill="#847C7C"/>
<circle cx="975" cy="719" r="25" fill="#D02D2D"/>
<circle cx="971" cy="728" r="25" fill="#C4C4C4"/>
<circle cx="881" cy="814" r="25" fill="#D03F3F"/>
<circle cx="873" cy="821" r="25" fill="#C4C4C4"/>
<ellipse cx="880.5" cy="734.5" rx="35.5" ry="34.5" fill="#31569F"/>
<ellipse cx="871.5" cy="739.5" rx="35.5" ry="34.5" fill="#B5A3A3"/>
<ellipse cx="929.23" cy="776.993" rx="31.5" ry="12.5" transform="rotate(-44.4964 929.23 776.993)" fill="#C4C4C4"/>
<ellipse cx="454.5" cy="858" rx="21.5" ry="22" fill="#CDAC00"/>
<ellipse cx="598.5" cy="935.5" rx="18.5" ry="19.5" fill="#CDAC00"/>
<ellipse cx="618.5" cy="1006.5" rx="18.5" ry="19.5" fill="#CDAC00"/>
<ellipse cx="589.5" cy="846.5" rx="18.5" ry="19.5" fill="#CDAC00"/>
<ellipse cx="454.5" cy="857" rx="10.5" ry="11" fill="#040404"/>
<rect x="567.719" y="733.501" width="5" height="150" transform="rotate(41.8927 567.719 733.501)" fill="#C7A83C"/>
<rect x="583.613" y="755" width="8.66788" height="125.218" transform="rotate(41.8927 583.613 755)" fill="#C7A83C"/>
<rect x="504" y="848.302" width="8.66788" height="125.218" transform="rotate(-46.6352 504 848.302)" fill="#C7A83C"/>
<rect x="694" y="821.302" width="8.66788" height="125.218" transform="rotate(-46.6352 694 821.302)" fill="#C7A83C"/>
<rect x="742.907" y="956.133" width="10.2242" height="125.218" transform="rotate(-132.499 742.907 956.133)" fill="#C7A83C"/>
<rect x="602.996" y="773" width="8.66788" height="100.333" transform="rotate(41.8927 602.996 773)" fill="#C7A83C"/>
<rect x="659.686" y="956.413" width="5.05414" height="63.9269" transform="rotate(41.8927 659.686 956.413)" fill="#C7A83C"/>
<rect x="541" y="849.238" width="8.66788" height="163.096" transform="rotate(-46.0229 541 849.238)" fill="#C7A83C"/>
<rect x="684.933" y="904.061" width="8.66788" height="73.4628" transform="rotate(-43.6966 684.933 904.061)" fill="#C7A83C"/>
<rect width="2.55679" height="22.8258" transform="matrix(-0.700503 -0.713649 -0.713649 0.700503 710.29 891.01)" fill="#C7A83C"/>
<rect width="2.55679" height="22.8258" transform="matrix(-0.700503 -0.713649 -0.713649 0.700503 732.29 920.01)" fill="#C7A83C"/>
<rect width="2.55679" height="22.8258" transform="matrix(-0.700503 -0.713649 -0.713649 0.700503 706.29 919.01)" fill="#C7A83C"/>
<rect x="626.955" y="795.654" width="4.69303" height="70.3198" transform="rotate(41.8927 626.955 795.654)" fill="#C7A83C"/>
<rect x="568" y="742.06" width="8.92482" height="150" transform="rotate(-42.7686 568 742.06)" fill="#C7A83C"/>
<rect x="670.964" y="845.838" width="7.34029" height="251.164" transform="rotate(-132.548 670.964 845.838)" fill="#C7A83C"/>
<ellipse cx="591" cy="399" rx="126" ry="124" fill="#858282"/>
<ellipse cx="591" cy="398.5" rx="118" ry="113.5" fill="white"/>
<rect x="675.61" y="319.864" width="9" height="86.1232" transform="rotate(49.6244 675.61 319.864)" fill="#C4C4C4"/>
<rect x="566.802" y="414" width="9" height="89" transform="rotate(49.6244 566.802 414)" fill="#C4C4C4"/>
<rect x="504" y="321.282" width="9" height="232.408" transform="rotate(-44.263 504 321.282)" fill="#C4C4C4"/>
<ellipse cx="591.5" cy="397" rx="10.5" ry="10" fill="#F83838"/>
<path d="M591.357 413.032L623.792 510.27L559.088 510.326L591.357 413.032Z" fill="black"/>
<path d="M607.756 398.411L703.394 361.523L706.435 426.156L607.756 398.411Z" fill="black"/>
<path d="M573.135 399.355L476.271 432.892L475.481 368.192L573.135 399.355Z" fill="black"/>
<path d="M589.354 385.155L558.246 287.483L622.945 288.309L589.354 385.155Z" fill="black"/>
</svg>
